<?xml version="1.0" encoding="utf-8"?>
<!-- Generator: Adobe Illustrator 28.1.0, SVG Export Plug-In . SVG Version: 6.00 Build 0)  -->
<svg version="1.1" id="Ebene_1" xmlns="http://www.w3.org/2000/svg" xmlns:xlink="http://www.w3.org/1999/xlink" x="0px" y="0px"
	 viewBox="0 0 55 55" style="enable-background:new 0 0 55 55;" xml:space="preserve">
<style type="text/css">
	.st0{fill:#1185FE;}
</style>
<path class="st0" d="M27.5,24.7C25,19.9,18.2,10.9,11.9,6.4c-6-4.3-8.3-3.5-9.8-2.8C0.3,4.4,0,7.1,0,8.7s0.9,12.9,1.4,14.8
	c1.9,6.3,8.5,8.4,14.6,7.7c0.3,0,0.6-0.1,1-0.1c-0.3,0-0.6,0.1-1,0.1c-9,1.3-16.9,4.6-6.5,16.2c11.5,11.9,15.7-2.5,17.9-9.9
	c2.2,7.3,4.7,21.2,17.7,9.9c9.8-9.9,2.7-14.9-6.3-16.2c-0.3,0-0.6-0.1-1-0.1c0.3,0,0.6,0.1,1,0.1c6.1,0.7,12.8-1.4,14.6-7.7
	C54.1,21.6,55,10.2,55,8.7s-0.3-4.3-2.1-5.1c-1.5-0.7-3.8-1.4-9.8,2.8C36.8,10.9,30,19.9,27.5,24.7z"/>
</svg>
