<?xml version="1.0" encoding="utf-8"?>
<!-- Generator: Adobe Illustrator 28.1.0, SVG Export Plug-In . SVG Version: 6.00 Build 0)  -->
<svg version="1.1" id="Layer_1" xmlns="http://www.w3.org/2000/svg" xmlns:xlink="http://www.w3.org/1999/xlink" x="0px" y="0px"
	 viewBox="0 0 216 216" style="enable-background:new 0 0 216 216;" xml:space="preserve">
<style type="text/css">
	.st0{fill:url(#SVGID_1_);}
	.st1{fill:url(#SVGID_00000013165804765437123790000013483240600141690241_);}
	.st2{fill:url(#SVGID_00000152250629847071386430000008455487180471359386_);}
	.st3{fill:#842123;}
	.st4{fill:url(#SVGID_00000026848365344094582900000006823611089094367903_);}
	.st5{fill:url(#SVGID_00000029030202592802265350000015687714473980994225_);}
	.st6{fill:#FFC49C;}
	.st7{fill:#BBCFDA;}
	.st8{fill:#FFFFFF;}
	.st9{fill:url(#SVGID_00000087414649720377903990000009011861937528305304_);}
	.st10{fill:url(#SVGID_00000138533863956845065940000011402826743309615775_);}
	.st11{fill:url(#SVGID_00000014620807498521141000000017076201640191667389_);}
	.st12{fill:#FF6101;}
	.st13{fill:#FF4500;}
</style>
<symbol  id="Snoo" viewBox="-216.1 -188.9 432.2 377.7">
	<g>
		
			<radialGradient id="SVGID_1_" cx="154.385" cy="1239.2911" r="127.45" fx="154.385" fy="1248.4111" gradientTransform="matrix(1 0 0 0.87 0 -1116.0299)" gradientUnits="userSpaceOnUse">
			<stop  offset="0" style="stop-color:#FEFFFF"/>
			<stop  offset="0.4" style="stop-color:#FEFFFF"/>
			<stop  offset="0.51" style="stop-color:#F9FCFC"/>
			<stop  offset="0.62" style="stop-color:#EDF3F5"/>
			<stop  offset="0.7" style="stop-color:#DEE9EC"/>
			<stop  offset="0.72" style="stop-color:#D8E4E8"/>
			<stop  offset="0.76" style="stop-color:#CCD8DF"/>
			<stop  offset="0.8" style="stop-color:#C8D5DD"/>
			<stop  offset="0.83" style="stop-color:#CCD6DE"/>
			<stop  offset="0.85" style="stop-color:#D8DBE2"/>
			<stop  offset="0.88" style="stop-color:#EDE3E9"/>
			<stop  offset="0.9" style="stop-color:#FFEBEF"/>
		</radialGradient>
		<circle class="st0" cx="153.1" cy="-0.3" r="63"/>
		
			<radialGradient id="SVGID_00000001643606655765714190000014246554686454417564_" cx="-151.725" cy="-37.27" r="127.45" fx="-151.725" fy="-28.15" gradientUnits="userSpaceOnUse">
			<stop  offset="0" style="stop-color:#FEFFFF"/>
			<stop  offset="0.4" style="stop-color:#FEFFFF"/>
			<stop  offset="0.51" style="stop-color:#F9FCFC"/>
			<stop  offset="0.62" style="stop-color:#EDF3F5"/>
			<stop  offset="0.7" style="stop-color:#DEE9EC"/>
			<stop  offset="0.72" style="stop-color:#D8E4E8"/>
			<stop  offset="0.76" style="stop-color:#CCD8DF"/>
			<stop  offset="0.8" style="stop-color:#C8D5DD"/>
			<stop  offset="0.83" style="stop-color:#CCD6DE"/>
			<stop  offset="0.85" style="stop-color:#D8DBE2"/>
			<stop  offset="0.88" style="stop-color:#EDE3E9"/>
			<stop  offset="0.9" style="stop-color:#FFEBEF"/>
		</radialGradient>
		<circle style="fill:url(#SVGID_00000001643606655765714190000014246554686454417564_);" cx="-153.1" cy="-0.3" r="63"/>
		
			<radialGradient id="SVGID_00000088819330162108477640000003901813859763600553_" cx="4.035" cy="3607.5659" r="384.44" gradientTransform="matrix(1 0 0 0.7 0 -2579.25)" gradientUnits="userSpaceOnUse">
			<stop  offset="0" style="stop-color:#FEFFFF"/>
			<stop  offset="0.4" style="stop-color:#FEFFFF"/>
			<stop  offset="0.51" style="stop-color:#F9FCFC"/>
			<stop  offset="0.62" style="stop-color:#EDF3F5"/>
			<stop  offset="0.7" style="stop-color:#DEE9EC"/>
			<stop  offset="0.72" style="stop-color:#D8E4E8"/>
			<stop  offset="0.76" style="stop-color:#CCD8DF"/>
			<stop  offset="0.8" style="stop-color:#C8D5DD"/>
			<stop  offset="0.83" style="stop-color:#CCD6DE"/>
			<stop  offset="0.85" style="stop-color:#D8DBE2"/>
			<stop  offset="0.88" style="stop-color:#EDE3E9"/>
			<stop  offset="0.9" style="stop-color:#FFEBEF"/>
		</radialGradient>
		<ellipse style="fill:url(#SVGID_00000088819330162108477640000003901813859763600553_);" cx="0.2" cy="53.9" rx="180" ry="135"/>
		<g>
			<path class="st3" d="M-53.1,40.7C-54.1,63.6-69.3,71.9-87,71.9s-31.2-11.7-30.1-34.6c1.1-22.9,16.2-38,33.9-38
				S-52,17.9-53.1,40.7L-53.1,40.7z"/>
			<path class="st3" d="M117.4,37.3c1,22.9-12.4,34.6-30.1,34.6s-32.9-8.3-33.9-31.2c-1-22.9,12.4-41.4,30.1-41.4
				S116.3,14.4,117.4,37.3L117.4,37.3z"/>
		</g>
		
			<radialGradient id="SVGID_00000178906844766908332610000002207264153428318123_" cx="-81.405" cy="-2640.0544" r="32.12" gradientTransform="matrix(1 0 0 1.46 0 3906.6804)" gradientUnits="userSpaceOnUse">
			<stop  offset="0" style="stop-color:#FF6600"/>
			<stop  offset="0.5" style="stop-color:#FF4500"/>
			<stop  offset="0.7" style="stop-color:#FC4301"/>
			<stop  offset="0.82" style="stop-color:#F43F07"/>
			<stop  offset="0.92" style="stop-color:#E53812"/>
			<stop  offset="1" style="stop-color:#D4301F"/>
		</radialGradient>
		<path style="fill:url(#SVGID_00000178906844766908332610000002207264153428318123_);" d="M-53.1,42.7c-1,21.4-15.2,29.2-31.7,29.2
			s-29.2-11.6-28.2-33c1-21.4,15.2-35.4,31.7-35.4S-52.1,21.3-53.1,42.7L-53.1,42.7z"/>
		
			<radialGradient id="SVGID_00000142869993138108797300000005919176126761947294_" cx="20871.6055" cy="-2640.0544" r="32.12" gradientTransform="matrix(-1 0 0 1.46 20953.3203 3906.6804)" gradientUnits="userSpaceOnUse">
			<stop  offset="0" style="stop-color:#FF6600"/>
			<stop  offset="0.5" style="stop-color:#FF4500"/>
			<stop  offset="0.7" style="stop-color:#FC4301"/>
			<stop  offset="0.82" style="stop-color:#F43F07"/>
			<stop  offset="0.92" style="stop-color:#E53812"/>
			<stop  offset="1" style="stop-color:#D4301F"/>
		</radialGradient>
		<path style="fill:url(#SVGID_00000142869993138108797300000005919176126761947294_);" d="M53.4,42.7c1,21.4,15.2,29.2,31.7,29.2
			s29.1-11.6,28.2-33c-1-21.4-15.2-35.4-31.7-35.4S52.4,21.3,53.4,42.7L53.4,42.7z"/>
		<ellipse class="st6" cx="-70.9" cy="23.2" rx="7" ry="7.6"/>
		<ellipse class="st6" cx="95.5" cy="23.2" rx="7" ry="7.6"/>
		<path class="st7" d="M0.2,87.2c-22.3,0-43.7,1.1-63.5,3c-3.4,0.3-5.5,3.8-4.2,6.9c11.1,26,37.2,44.2,67.7,44.2S56.8,123,67.9,97.1
			c1.3-3.1-0.8-6.5-4.2-6.9C43.9,88.2,22.5,87.2,0.2,87.2L0.2,87.2z"/>
		<path class="st8" d="M0.2,92.1c-22.2,0-43.6,1.1-63.3,3.1c-3.4,0.3-5.5,3.8-4.2,7c11.1,26.4,37.1,44.9,67.5,44.9
			s56.4-18.5,67.5-44.9c1.3-3.1-0.8-6.6-4.2-7C43.7,93.2,22.4,92.1,0.2,92.1L0.2,92.1z"/>
		
			<radialGradient id="SVGID_00000158738374998098505070000004357178506923683991_" cx="-0.175" cy="4550.6709" r="113.26" gradientTransform="matrix(1 0 0 0.66 0 -2852.4897)" gradientUnits="userSpaceOnUse">
			<stop  offset="0" style="stop-color:#172E35"/>
			<stop  offset="0.29" style="stop-color:#0E1C21"/>
			<stop  offset="0.73" style="stop-color:#030708"/>
			<stop  offset="1" style="stop-color:#000000"/>
		</radialGradient>
		<path style="fill:url(#SVGID_00000158738374998098505070000004357178506923683991_);" d="M0.2,89.5c-21.9,0-42.9,1.1-62.3,3
			c-3.3,0.3-5.4,3.8-4.1,6.9c10.9,26,36.5,44.2,66.4,44.2s55.6-18.2,66.4-44.2c1.3-3.1-0.8-6.5-4.1-6.9
			C43.1,90.6,22.1,89.5,0.2,89.5L0.2,89.5z"/>
		
			<radialGradient id="SVGID_00000133487457877448911530000003098511186204643970_" cx="99.705" cy="-11.0404" r="99.42" gradientTransform="matrix(1 0 0 0.98 0 -174.5798)" gradientUnits="userSpaceOnUse">
			<stop  offset="0" style="stop-color:#FEFFFF"/>
			<stop  offset="0.4" style="stop-color:#FEFFFF"/>
			<stop  offset="0.51" style="stop-color:#F9FCFC"/>
			<stop  offset="0.62" style="stop-color:#EDF3F5"/>
			<stop  offset="0.7" style="stop-color:#DEE9EC"/>
			<stop  offset="0.72" style="stop-color:#D8E4E8"/>
			<stop  offset="0.76" style="stop-color:#CCD8DF"/>
			<stop  offset="0.8" style="stop-color:#C8D5DD"/>
			<stop  offset="0.83" style="stop-color:#CCD6DE"/>
			<stop  offset="0.85" style="stop-color:#D8DBE2"/>
			<stop  offset="0.88" style="stop-color:#EDE3E9"/>
			<stop  offset="0.9" style="stop-color:#FFEBEF"/>
		</radialGradient>
		<circle style="fill:url(#SVGID_00000133487457877448911530000003098511186204643970_);" cx="98.7" cy="-144.2" r="44.7"/>
		
			<radialGradient id="SVGID_00000174564146548506291690000004482953863785024183_" cx="58.275" cy="-85.04" r="81.49" gradientUnits="userSpaceOnUse">
			<stop  offset="0.48" style="stop-color:#7A9299"/>
			<stop  offset="0.67" style="stop-color:#172E35"/>
			<stop  offset="0.75" style="stop-color:#000000"/>
			<stop  offset="0.82" style="stop-color:#172E35"/>
		</radialGradient>
		<path style="fill:url(#SVGID_00000174564146548506291690000004482953863785024183_);" d="M-0.5-75.4c-5.4,0-9.7-2.2-9.7-5.7
			c0-40,32.6-72.6,72.6-72.6c5.4,0,9.7,4.3,9.7,9.7c0,5.3-4.3,9.7-9.7,9.7c-29.3,0-53.2,23.9-53.2,53.2C9.2-77.7,4.9-75.4-0.5-75.4
			L-0.5-75.4z"/>
		<path class="st12" d="M-64.8,53.3c0,8.3-8.8,12-19.7,12s-19.7-3.7-19.7-12s8.8-15,19.7-15S-64.8,45-64.8,53.3z"/>
		<path class="st12" d="M104.5,53.3c0,8.3-8.8,12-19.7,12s-19.7-3.7-19.7-12s8.8-15,19.7-15S104.5,45,104.5,53.3z"/>
	</g>
</symbol>
<path class="st13" d="M108,0L108,0C48.3,0,0,48.3,0,108l0,0c0,29.8,12.1,56.8,31.6,76.4l-20.6,20.6C7,209,9.9,216,15.6,216H108l0,0
	c59.6,0,108-48.4,108-108l0,0C216,48.3,167.6,0,108,0z"/>
<use xlink:href="#Snoo"  width="432.2" height="377.7" x="-216.1" y="-188.9" transform="matrix(0.4 0 0 0.4 108.002 107.094)" style="overflow:visible;"/>
</svg>
